<svg width="24" height="24" viewBox="0 0 24 24" fill="none" xmlns="http://www.w3.org/2000/svg">
<path d="M11.9928 1.00403e-06C5.5081 -0.00268026 0.255859 5.36521 0.255859 11.9906C0.255859 17.2298 3.54146 21.6834 8.11717 23.319C8.73339 23.4772 8.63899 23.0294 8.63899 22.7237V20.6457C5.08068 21.0721 4.93646 18.6643 4.69784 18.2621C4.21536 17.4202 3.07471 17.2057 3.41559 16.8035C4.22585 16.3772 5.05184 16.9107 6.00894 18.3559C6.70119 19.4043 8.05162 19.2274 8.73601 19.0531C8.88547 18.423 9.20538 17.8599 9.64591 17.4229C5.95911 16.7472 4.42251 14.4467 4.42251 11.7118C4.42251 10.3845 4.84993 9.16457 5.68903 8.18054C5.1541 6.55838 5.73885 5.16948 5.81752 4.96302C7.34101 4.8236 8.92481 6.07843 9.04805 6.17764C9.91337 5.939 10.9019 5.81298 12.0085 5.81298C13.1203 5.81298 14.1115 5.94437 14.9847 6.18568C15.281 5.95509 16.7494 4.87722 18.1654 5.0086C18.2414 5.21506 18.8131 6.57178 18.3096 8.1725C19.1592 9.1592 19.5919 10.3899 19.5919 11.7198C19.5919 14.4601 18.0448 16.7633 14.3475 17.4282C14.6642 17.7467 14.9156 18.1265 15.0872 18.5454C15.2587 18.9643 15.3469 19.414 15.3465 19.8682V22.8846C15.3675 23.1259 15.3465 23.3645 15.7399 23.3645C20.3838 21.7638 23.727 17.2781 23.727 11.9933C23.727 5.36521 18.4722 1.00403e-06 11.9928 1.00403e-06V1.00403e-06Z" fill="#fff"/>
</svg>
